<mxfile host="app.diagrams.net" modified="2023-01-28T00:13:53.038Z" agent="5.0 (Windows NT 10.0; Win64; x64) AppleWebKit/537.36 (KHTML, like Gecko) Chrome/109.0.0.0 Safari/537.36" etag="qg6PRIlKyXcoHwXcHxcg" version="20.8.13" type="github">
  <diagram id="C5RBs43oDa-KdzZeNtuy" name="Page-1">
    <mxGraphModel dx="1150" dy="483" grid="1" gridSize="10" guides="1" tooltips="1" connect="1" arrows="1" fold="1" page="1" pageScale="1" pageWidth="827" pageHeight="1169" math="0" shadow="0">
      <root>
        <mxCell id="WIyWlLk6GJQsqaUBKTNV-0" />
        <mxCell id="WIyWlLk6GJQsqaUBKTNV-1" parent="WIyWlLk6GJQsqaUBKTNV-0" />
        <mxCell id="W29NnXGGYYmJcmvvzEcG-67" value="Geocoding" style="horizontal=1;whiteSpace=wrap;html=1;fontSize=12;glass=0;strokeWidth=1;shadow=0;fillColor=#d5e8d4;strokeColor=#82b366;childLayout=treeLayout;swimlane;" parent="WIyWlLk6GJQsqaUBKTNV-1" vertex="1">
          <mxGeometry x="440" y="450" width="312.5" height="160" as="geometry" />
        </mxCell>
        <mxCell id="W29NnXGGYYmJcmvvzEcG-68" value="Valid_address_df" style="whiteSpace=wrap;html=1;fontSize=14;" parent="W29NnXGGYYmJcmvvzEcG-67" vertex="1">
          <mxGeometry x="90" y="30" width="140" height="30" as="geometry" />
        </mxCell>
        <mxCell id="W29NnXGGYYmJcmvvzEcG-70" value="" style="edgeStyle=elbowEdgeStyle;elbow=vertical;html=1;rounded=1;curved=0;targetPerimeterSpacing=0;startSize=6;endSize=6;fontSize=14;startArrow=none;" parent="W29NnXGGYYmJcmvvzEcG-67" source="WIyWlLk6GJQsqaUBKTNV-6" edge="1">
          <mxGeometry relative="1" as="geometry">
            <mxPoint x="163.5" y="60" as="sourcePoint" />
            <mxPoint x="74.25" y="110" as="targetPoint" />
          </mxGeometry>
        </mxCell>
        <mxCell id="W29NnXGGYYmJcmvvzEcG-71" value="" style="edgeStyle=elbowEdgeStyle;elbow=vertical;html=1;rounded=1;curved=0;targetPerimeterSpacing=0;startSize=6;endSize=6;fontSize=14;startArrow=none;" parent="W29NnXGGYYmJcmvvzEcG-67" source="4Sw3aIR59aRq2CPispGW-0" edge="1">
          <mxGeometry relative="1" as="geometry">
            <mxPoint x="163.5" y="60" as="sourcePoint" />
            <mxPoint x="243.5" y="110" as="targetPoint" />
          </mxGeometry>
        </mxCell>
        <mxCell id="W29NnXGGYYmJcmvvzEcG-84" value="" style="edgeStyle=elbowEdgeStyle;elbow=vertical;html=1;rounded=1;curved=0;sourcePerimeterSpacing=0;targetPerimeterSpacing=0;startSize=6;endSize=6;fontSize=14;" parent="W29NnXGGYYmJcmvvzEcG-67" edge="1">
          <mxGeometry relative="1" as="geometry">
            <mxPoint x="157.75" y="60" as="sourcePoint" />
            <mxPoint x="237.75" y="110" as="targetPoint" />
          </mxGeometry>
        </mxCell>
        <mxCell id="W29NnXGGYYmJcmvvzEcG-83" value="" style="edgeStyle=elbowEdgeStyle;elbow=vertical;html=1;rounded=1;curved=0;sourcePerimeterSpacing=0;targetPerimeterSpacing=0;startSize=6;endSize=6;fontSize=14;" parent="W29NnXGGYYmJcmvvzEcG-67" edge="1">
          <mxGeometry relative="1" as="geometry">
            <mxPoint x="157.75" y="60" as="sourcePoint" />
            <mxPoint x="68.5" y="110" as="targetPoint" />
          </mxGeometry>
        </mxCell>
        <mxCell id="4Sw3aIR59aRq2CPispGW-0" value="ESRI" style="rhombus;whiteSpace=wrap;html=1;shadow=0;fontFamily=Helvetica;fontSize=12;align=center;strokeWidth=1;spacing=6;spacingTop=-4;fillColor=#e1d5e7;strokeColor=#9673a6;" parent="W29NnXGGYYmJcmvvzEcG-67" vertex="1">
          <mxGeometry x="192.5" y="70" width="100" height="80" as="geometry" />
        </mxCell>
        <mxCell id="WIyWlLk6GJQsqaUBKTNV-6" value="Google" style="rhombus;whiteSpace=wrap;html=1;shadow=0;fontFamily=Helvetica;fontSize=12;align=center;strokeWidth=1;spacing=6;spacingTop=-4;fillColor=#f8cecc;strokeColor=#b85450;" parent="W29NnXGGYYmJcmvvzEcG-67" vertex="1">
          <mxGeometry x="12.5" y="70" width="100" height="80" as="geometry" />
        </mxCell>
        <mxCell id="W29NnXGGYYmJcmvvzEcG-131" value="Full_regeocoding_upserts.sql" style="horizontal=1;whiteSpace=wrap;html=1;fontSize=12;glass=0;strokeWidth=1;shadow=0;fillColor=#d5e8d4;strokeColor=#82b366;childLayout=treeLayout;swimlane;startSize=23;" parent="WIyWlLk6GJQsqaUBKTNV-1" vertex="1">
          <mxGeometry x="80" y="630" width="337.5" height="580" as="geometry" />
        </mxCell>
        <mxCell id="W29NnXGGYYmJcmvvzEcG-57" value="DROP-CREATE TABLE&lt;br&gt;Geocoding&amp;nbsp;" style="shape=ext;margin=3;double=1;whiteSpace=wrap;html=1;align=center;fontSize=14;fillColor=#dae8fc;strokeColor=#6c8ebf;" parent="W29NnXGGYYmJcmvvzEcG-131" vertex="1">
          <mxGeometry x="47.5" y="30" width="222.5" height="60" as="geometry" />
        </mxCell>
        <mxCell id="W29NnXGGYYmJcmvvzEcG-130" value="&lt;font style=&quot;font-size: 14px;&quot;&gt;&amp;lt;geocoder&amp;gt;lac_master_address_spatial&lt;/font&gt;" style="shape=datastore;whiteSpace=wrap;html=1;fontSize=18;fontSize=20;fillColor=#e6d0de;gradientColor=#d5739d;strokeColor=#996185;" parent="W29NnXGGYYmJcmvvzEcG-131" vertex="1">
          <mxGeometry x="23.75" y="450" width="270" height="115" as="geometry" />
        </mxCell>
        <mxCell id="W29NnXGGYYmJcmvvzEcG-143" value="" style="verticalLabelPosition=bottom;verticalAlign=top;html=1;shape=mxgraph.flowchart.collate;fontSize=14;" parent="W29NnXGGYYmJcmvvzEcG-131" vertex="1">
          <mxGeometry x="138.13" y="90" width="41.25" height="40" as="geometry" />
        </mxCell>
        <mxCell id="W29NnXGGYYmJcmvvzEcG-144" value="DROP-CREATE TEMP TABLE&lt;br&gt;normalized_geo_results&amp;nbsp;" style="shape=ext;margin=3;double=1;whiteSpace=wrap;html=1;align=center;fontSize=14;fillColor=#dae8fc;strokeColor=#6c8ebf;" parent="W29NnXGGYYmJcmvvzEcG-131" vertex="1">
          <mxGeometry x="47.5" y="130" width="222.5" height="60" as="geometry" />
        </mxCell>
        <mxCell id="W29NnXGGYYmJcmvvzEcG-145" value="" style="verticalLabelPosition=bottom;verticalAlign=top;html=1;shape=mxgraph.flowchart.collate;fontSize=14;" parent="W29NnXGGYYmJcmvvzEcG-131" vertex="1">
          <mxGeometry x="138.13" y="190" width="41.25" height="40" as="geometry" />
        </mxCell>
        <mxCell id="W29NnXGGYYmJcmvvzEcG-146" value="Spatial joins on normalized_geo_results&amp;nbsp;" style="shape=ext;margin=3;double=1;whiteSpace=wrap;html=1;align=center;fontSize=14;fillColor=#dae8fc;strokeColor=#6c8ebf;" parent="W29NnXGGYYmJcmvvzEcG-131" vertex="1">
          <mxGeometry x="47.5" y="230" width="222.5" height="60" as="geometry" />
        </mxCell>
        <mxCell id="W29NnXGGYYmJcmvvzEcG-148" value="" style="html=1;shadow=0;dashed=0;align=center;verticalAlign=middle;shape=mxgraph.arrows2.stripedArrow;dy=0.6;dx=40;notch=25.24;fontSize=14;rotation=90;" parent="W29NnXGGYYmJcmvvzEcG-131" vertex="1">
          <mxGeometry x="122.66000000000001" y="410" width="72.18" height="30" as="geometry" />
        </mxCell>
        <mxCell id="jYFIWSSrQFbZEtbplb9U-2" value="" style="verticalLabelPosition=bottom;verticalAlign=top;html=1;shape=mxgraph.flowchart.collate;fontSize=14;" vertex="1" parent="W29NnXGGYYmJcmvvzEcG-131">
          <mxGeometry x="138.13" y="290" width="41.25" height="40" as="geometry" />
        </mxCell>
        <mxCell id="jYFIWSSrQFbZEtbplb9U-3" value="Delete-reinsert problem records" style="shape=ext;margin=3;double=1;whiteSpace=wrap;html=1;align=center;fontSize=14;fillColor=#dae8fc;strokeColor=#6c8ebf;" vertex="1" parent="W29NnXGGYYmJcmvvzEcG-131">
          <mxGeometry x="47.5" y="330" width="222.5" height="60" as="geometry" />
        </mxCell>
        <mxCell id="NmtSDBNtCY8pfdK0OWGW-4" style="edgeStyle=orthogonalEdgeStyle;rounded=0;orthogonalLoop=1;jettySize=auto;html=1;exitX=0.75;exitY=1;exitDx=0;exitDy=0;" parent="WIyWlLk6GJQsqaUBKTNV-1" edge="1">
          <mxGeometry relative="1" as="geometry">
            <mxPoint x="295" y="63" as="targetPoint" />
            <mxPoint x="295" y="62.5" as="sourcePoint" />
          </mxGeometry>
        </mxCell>
        <mxCell id="jYFIWSSrQFbZEtbplb9U-0" style="edgeStyle=orthogonalEdgeStyle;rounded=0;orthogonalLoop=1;jettySize=auto;html=1;exitX=0.75;exitY=1;exitDx=0;exitDy=0;" edge="1" parent="WIyWlLk6GJQsqaUBKTNV-1">
          <mxGeometry relative="1" as="geometry">
            <mxPoint x="295" y="63" as="targetPoint" />
            <mxPoint x="295" y="62.5" as="sourcePoint" />
          </mxGeometry>
        </mxCell>
        <mxCell id="jYFIWSSrQFbZEtbplb9U-41" value="Regeocoding Queries" style="strokeWidth=2;html=1;shape=mxgraph.flowchart.multi-document;whiteSpace=wrap;" vertex="1" parent="WIyWlLk6GJQsqaUBKTNV-1">
          <mxGeometry x="210" y="26.25" width="180" height="80" as="geometry" />
        </mxCell>
        <mxCell id="jYFIWSSrQFbZEtbplb9U-53" value="" style="edgeStyle=elbowEdgeStyle;elbow=vertical;html=1;rounded=1;curved=0;sourcePerimeterSpacing=0;targetPerimeterSpacing=0;startSize=6;endSize=6;fontSize=14;" edge="1" parent="WIyWlLk6GJQsqaUBKTNV-1">
          <mxGeometry relative="1" as="geometry">
            <mxPoint x="215.25" y="120" as="sourcePoint" />
            <mxPoint x="126" y="170" as="targetPoint" />
          </mxGeometry>
        </mxCell>
        <mxCell id="jYFIWSSrQFbZEtbplb9U-54" value="ESRI" style="rhombus;whiteSpace=wrap;html=1;shadow=0;fontFamily=Helvetica;fontSize=12;align=center;strokeWidth=1;spacing=6;spacingTop=-4;fillColor=#e1d5e7;strokeColor=#9673a6;" vertex="1" parent="WIyWlLk6GJQsqaUBKTNV-1">
          <mxGeometry x="230" y="170" width="100" height="80" as="geometry" />
        </mxCell>
        <mxCell id="jYFIWSSrQFbZEtbplb9U-55" value="Google" style="rhombus;whiteSpace=wrap;html=1;shadow=0;fontFamily=Helvetica;fontSize=12;align=center;strokeWidth=1;spacing=6;spacingTop=-4;fillColor=#f8cecc;strokeColor=#b85450;" vertex="1" parent="WIyWlLk6GJQsqaUBKTNV-1">
          <mxGeometry x="110" y="170" width="100" height="80" as="geometry" />
        </mxCell>
        <mxCell id="jYFIWSSrQFbZEtbplb9U-56" value="" style="edgeStyle=elbowEdgeStyle;elbow=vertical;html=1;rounded=1;curved=0;sourcePerimeterSpacing=0;targetPerimeterSpacing=0;startSize=6;endSize=6;fontSize=14;" edge="1" parent="WIyWlLk6GJQsqaUBKTNV-1">
          <mxGeometry relative="1" as="geometry">
            <mxPoint x="340" y="120" as="sourcePoint" />
            <mxPoint x="420" y="170" as="targetPoint" />
          </mxGeometry>
        </mxCell>
        <mxCell id="jYFIWSSrQFbZEtbplb9U-58" value="ESRI" style="rhombus;whiteSpace=wrap;html=1;shadow=0;fontFamily=Helvetica;fontSize=12;align=center;strokeWidth=1;spacing=6;spacingTop=-4;fillColor=#e1d5e7;strokeColor=#9673a6;" vertex="1" parent="WIyWlLk6GJQsqaUBKTNV-1">
          <mxGeometry x="340" y="170" width="100" height="80" as="geometry" />
        </mxCell>
      </root>
    </mxGraphModel>
  </diagram>
</mxfile>
